<!-- Generated by IcoMoon.io -->
<svg version="1.1" xmlns="http://www.w3.org/2000/svg" width="32" height="32" viewBox="0 0 32 32">
<title>untitled147</title>
<path d="M21.376 25.6h4.128v-7.904q0-2.528-1.168-4.16t-3.568-1.632q-1.248 0-2.352 0.576t-1.744 1.6h-0.064l-0.192-1.888h-3.552q0.096 3.36 0.096 13.408h4.096v-7.712q0-0.704 0.128-1.056 0.256-0.672 0.832-1.12t1.28-0.448q2.080 0 2.080 2.912v7.424zM6.4 25.6h4.096v-13.408h-4.096v13.408zM8.48 6.4q-0.928 0-1.552 0.576t-0.624 1.504q0 0.896 0.592 1.488t1.52 0.592q0.96 0 1.584-0.576t0.624-1.504-0.608-1.504-1.536-0.576zM32 2.816v26.368q0 1.152-0.832 1.984t-1.984 0.832h-26.368q-1.152 0-1.984-0.832t-0.832-1.984v-26.368q0-1.152 0.832-1.984t1.984-0.832h26.368q1.152 0 1.984 0.832t0.832 1.984z"></path>
</svg>
